<svg id="Calque_1" data-name="Calque 1" xmlns="http://www.w3.org/2000/svg" viewBox="0 0 656 122">
  <defs>
    <style>
      .cls-1 {
        fill: #383838;
      }

      .cls-2 {
        fill: #f29400;
      }
    </style>
  </defs>
  <title>Logo Reezocar</title>
  <g>
    <g>
      <path class="cls-1" d="M40,42.2a20.12,20.12,0,0,0-4.41-.43c-11.94,0-18.48,7-18.48,19.19v36H1.35V26.28h15.5V37.22A21.9,21.9,0,0,1,36.17,25.71,30.06,30.06,0,0,1,40,26Z"/>
      <path class="cls-1" d="M58.08,66c.28,10.52,10.52,18.62,20.76,18.48,9.1,0,16.06-3.84,18.77-11.94l13.22,4.12c-2.56,8.67-9.67,15.64-18.2,18.91A40,40,0,0,1,79,98c-20.33.43-37.39-16.21-37-36.68A38.1,38.1,0,0,1,46.56,43,34,34,0,0,1,59.36,29.61a34.62,34.62,0,0,1,18.2-5c10.8,0,19.19,3.27,25.31,10.09s9.24,15.5,9.24,26.44c0,1.71-.14,3.41-.28,4.83Zm7.11-23.46a17.83,17.83,0,0,0-6.25,11.51H96a16,16,0,0,0-5.54-11.66A19.85,19.85,0,0,0,77.7,38.14,18.45,18.45,0,0,0,65.19,42.55Z"/>
      <path class="cls-1" d="M134.55,66c.28,10.52,10.52,18.62,20.76,18.48,9.1,0,16.06-3.84,18.77-11.94l13.22,4.12c-2.56,8.67-9.67,15.64-18.2,18.91A40,40,0,0,1,155.45,98c-20.33.43-37.39-16.21-37-36.68A38.1,38.1,0,0,1,123,43a34,34,0,0,1,12.79-13.36,34.62,34.62,0,0,1,18.2-5c10.8,0,19.19,3.27,25.31,10.09s9.24,15.5,9.24,26.44c0,1.71-.14,3.41-.28,4.83Zm7.11-23.46a17.84,17.84,0,0,0-6.26,11.51h37.1A16,16,0,0,0,167,42.41a19.85,19.85,0,0,0-12.79-4.26A18.45,18.45,0,0,0,141.66,42.55Z"/>
      <path class="cls-1" d="M193.21,39.78V26h57.15V38.5L211.4,83H250.5V96.64H192.21V83.57L230.6,39.78Z"/>
      <path class="cls-1" d="M258.45,42.55A35.85,35.85,0,0,1,272.1,29.33a39.31,39.31,0,0,1,37.25,0A35.42,35.42,0,0,1,328,61c.43,20.47-17.06,37.39-37.25,37a37.86,37.86,0,0,1-18.62-4.83,35.87,35.87,0,0,1-13.65-13.22,35.3,35.3,0,0,1-5.12-18.62A35.79,35.79,0,0,1,258.45,42.55Zm17.06,34.4a19.81,19.81,0,0,0,15.35,6.68,19.4,19.4,0,0,0,15.21-6.54,22.78,22.78,0,0,0,5.83-15.78,22.59,22.59,0,0,0-6-15.92c-3.84-4.41-9-6.54-15.21-6.54a20.06,20.06,0,0,0-15.35,6.4c-4,4.27-5.83,9.53-5.83,15.78A23.09,23.09,0,0,0,275.51,76.95Z"/>
      <path class="cls-1" d="M333.55,61.17a36.1,36.1,0,0,1,4.83-18.34,35.46,35.46,0,0,1,13.36-13.36,36.92,36.92,0,0,1,18.77-4.83c8.39,0,15.5,2.13,21.47,6.68s9.67,9.81,11.23,16.06L389,52.07a20,20,0,0,0-5.4-8.67c-2.84-2.7-7.54-4.55-13.08-4.55A20.28,20.28,0,0,0,355.73,45c-4,4.12-6,9.53-6,16.07s2,11.94,5.83,16.2a19.87,19.87,0,0,0,15.07,6.4c9,0,15.21-4.55,18.62-13.51l14.36,4.69c-1.56,5.69-5.12,10.94-10.52,15.5S379.61,98,370.37,98A36.21,36.21,0,0,1,333.55,61.17Z"/>
      <path class="cls-1" d="M454.44,96.71a49.18,49.18,0,0,1-.71-9.67,20.56,20.56,0,0,1-9.1,8.39A28.27,28.27,0,0,1,433,98c-6.82,0-12.65-2-17.06-6a18.93,18.93,0,0,1-6.68-14.93v-.71c.14-9.81,6-15.78,13.65-18.77a41.47,41.47,0,0,1,15.64-2.84h8.81c4.41,0,6.54-2,6.54-6a9.83,9.83,0,0,0-3.55-7.68c-2.42-2-5.83-3.13-10.38-3.13-8.39,0-14.22,4.69-15.35,11.8l-14.36-3.27c.43-3.27,2-6.82,4.83-10.66a26.78,26.78,0,0,1,11.09-8.53,34.09,34.09,0,0,1,14.36-2.7q19.83,0,26.44,14.5a29.72,29.72,0,0,1,2.42,12.51V85.34c0,4.69.14,8.53.43,11.37Zm-.71-30.85H438.51a17.41,17.41,0,0,0-9.24,2.56Q425,71.2,425,75.68c0,5.83,4.55,9.67,11.23,9.67,5.26,0,9.67-1.56,12.79-4.69s4.69-7.25,4.69-12.51Z"/>
      <path class="cls-1" d="M519.68,42.2a20.12,20.12,0,0,0-4.41-.43c-11.94,0-18.48,7-18.48,19.19v36H481V26.28h15.5V37.22a21.9,21.9,0,0,1,19.33-11.51,30.06,30.06,0,0,1,3.84.28Z"/>
    </g>
    <g>
      <path class="cls-2" d="M638.54,17.51a53.07,53.07,0,0,0-81.08,67.85l-21.25,21.25a2.82,2.82,0,0,0,0,4l9.24,9.24a2.82,2.82,0,0,0,4,0L570.68,98.6a53.07,53.07,0,0,0,67.86-81.08ZM631.9,85.93a43.68,43.68,0,1,1-61.78-61.78A43.68,43.68,0,0,1,631.9,85.93Z"/>
      <path class="cls-2" d="M624.63,47.71l-1.77-12.19c-1.18-8-12.27-10.88-21.4-10.88h0c-9.13,0-20.22,2.85-21.4,10.88l-1.77,12.19a13.22,13.22,0,0,0-7.55,11.91A13,13,0,0,0,575,69.14L575,78.9a.82.82,0,0,0,.76.87l8.74,0a.82.82,0,0,0,.75-.88h0l0-6,16.2-.09,16.23.09,0,6h0a.82.82,0,0,0,.75.88l8.74,0a.82.82,0,0,0,.76-.87l.05-9.79a13,13,0,0,0,4.21-9.49A13.22,13.22,0,0,0,624.63,47.71ZM581.86,64.47a5,5,0,1,1,5-5A5,5,0,0,1,581.86,64.47Zm3.41-18.15,1.43-9.84c.41-2.79,7.17-5.14,14.76-5.14h0c7.59,0,14.35,2.36,14.76,5.14l1.43,9.84-16.19-.08Zm35.79,18.15a5,5,0,1,1,5-5A5,5,0,0,1,621.06,64.47Z"/>
    </g>
  </g>
</svg>
